<svg width="201" height="60" viewBox="0 0 201 60" fill="none" xmlns="http://www.w3.org/2000/svg">
<path d="M198.726 52.6404C198.726 53.3864 198.579 54.1252 198.293 54.8143C198.008 55.5035 197.589 56.1296 197.061 56.6568C196.533 57.1841 195.906 57.6021 195.217 57.8871C194.527 58.1721 193.788 58.3183 193.042 58.3175H7.01158C5.50379 58.3191 4.05712 57.7219 2.98971 56.6573C1.92229 55.5927 1.32155 54.1478 1.31958 52.6404V7.36699C1.32154 5.85893 1.92205 4.41328 2.98926 3.34748C4.05646 2.28167 5.50311 1.68283 7.01158 1.68243H193.04C193.787 1.68243 194.526 1.82948 195.216 2.11517C195.906 2.40087 196.532 2.81961 197.06 3.34749C197.588 3.87537 198.007 4.50205 198.292 5.19172C198.578 5.88139 198.725 6.62056 198.725 7.36699L198.726 52.6404Z" fill="white"/>
<path d="M193.042 59.6383H7.01158C5.15417 59.6379 3.37277 58.9009 2.05827 57.5889C0.743765 56.277 0.00353415 54.4973 0 52.6404L0 7.36849C0.00274777 5.51065 0.74249 3.72976 2.05695 2.41648C3.37141 1.1032 5.15324 0.364788 7.01158 0.36322L193.04 0.36322C194.898 0.365571 196.68 1.10424 197.994 2.41734C199.308 3.73045 200.048 5.51089 200.052 7.36849V52.6404C200.055 56.5003 196.904 59.6383 193.042 59.6383Z" fill="#A6A6A6"/>
<path d="M198.726 52.6404C198.726 53.3864 198.579 54.1252 198.293 54.8143C198.008 55.5035 197.589 56.1296 197.061 56.6568C196.533 57.1841 195.906 57.6021 195.217 57.8871C194.527 58.1721 193.788 58.3183 193.042 58.3175H7.01158C5.50379 58.3191 4.05712 57.7219 2.98971 56.6573C1.92229 55.5927 1.32155 54.1478 1.31958 52.6404V7.36699C1.32154 5.85893 1.92205 4.41328 2.98926 3.34748C4.05646 2.28167 5.50311 1.68283 7.01158 1.68243H193.04C193.787 1.68243 194.526 1.82948 195.216 2.11517C195.906 2.40087 196.532 2.81961 197.06 3.34749C197.588 3.87537 198.007 4.50205 198.292 5.19172C198.578 5.88139 198.725 6.62056 198.725 7.36699L198.726 52.6404Z" fill="black"/>
<path d="M44.6701 29.6888C44.6271 24.9114 48.5829 22.5871 48.7638 22.4789C46.5235 19.2135 43.0511 18.7673 41.8308 18.7317C38.9144 18.4249 36.0854 20.4764 34.5998 20.4764C33.0845 20.4764 30.7967 18.7614 28.331 18.8118C25.1581 18.8607 22.1898 20.6972 20.5618 23.5491C17.2021 29.3641 19.7078 37.9095 22.9267 42.6098C24.5369 44.9133 26.4184 47.4821 28.8811 47.3917C31.2905 47.2938 32.1904 45.8575 35.098 45.8575C37.9788 45.8575 38.8239 47.3917 41.3356 47.3339C43.9214 47.2939 45.5494 45.0215 47.1032 42.6988C48.964 40.0618 49.7112 37.4619 49.7409 37.3285C49.6816 37.3077 44.7205 35.4133 44.6701 29.6888ZM39.9256 15.6397C41.2214 14.0195 42.1081 11.8154 41.8619 9.57861C39.9864 9.66162 37.6408 10.8756 36.29 12.4602C35.095 13.8565 34.0275 16.1451 34.3033 18.2974C36.4101 18.4545 38.5734 17.2346 39.9256 15.6397Z" fill="white"/>
<path d="M193.041 0.363281H93.3982L132.427 59.6383H193.041C194.899 59.6368 196.681 58.8988 197.995 57.5861C199.309 56.2735 200.05 54.4934 200.053 52.636V7.36856C200.05 5.51083 199.31 3.73017 197.996 2.41697C196.681 1.10378 194.9 0.365241 193.041 0.363281Z" fill="url(#paint0_linear_31_52)"/>
<path d="M79.5678 47.0611H76.2006L74.3562 41.2668H67.9451L66.1881 47.0611H62.9099L69.2632 27.3349H73.1863L79.5678 47.0611ZM73.8002 38.8359L72.1322 33.685C71.9557 33.1587 71.6236 31.9196 71.1373 29.9689H71.078C70.8823 30.8078 70.5694 32.047 70.1409 33.685L68.5011 38.8359H73.8002ZM95.8743 39.7742C95.8743 42.1933 95.2174 44.1054 93.9023 45.5091C92.7251 46.7587 91.2617 47.3827 89.5165 47.3827C87.6321 47.3827 86.2769 46.7113 85.454 45.3654V52.8287H82.2929V37.5122C82.2929 35.9929 82.2529 34.435 82.1758 32.8371H84.9558L85.1323 35.0916H85.1916C86.2458 33.393 87.8456 32.5436 89.9925 32.5436C91.6709 32.5436 93.072 33.2062 94.1929 34.5328C95.3123 35.8624 95.8743 37.6086 95.8743 39.7742ZM92.6539 39.8898C92.6539 38.5053 92.3425 37.364 91.7168 36.4642C91.0333 35.5289 90.1155 35.0605 88.965 35.0605C88.1851 35.0605 87.4764 35.3214 86.8433 35.8358C86.2087 36.3546 85.7935 37.032 85.5993 37.8709C85.5126 38.1847 85.4633 38.5076 85.4525 38.8329V41.2061C85.4525 42.2392 85.7698 43.1123 86.4044 43.8267C87.039 44.5382 87.8634 44.8955 88.8775 44.8955C90.0681 44.8955 90.9948 44.4345 91.6575 43.5199C92.3218 42.6024 92.6539 41.3928 92.6539 39.8898ZM112.239 39.7742C112.239 42.1933 111.582 44.1054 110.267 45.5091C109.088 46.7587 107.626 47.3827 105.879 47.3827C103.995 47.3827 102.64 46.7113 101.817 45.3654V52.8287H98.6558V37.5122C98.6558 35.9929 98.6157 34.435 98.5386 32.8371H101.319L101.495 35.0916H101.554C102.607 33.393 104.207 32.5436 106.355 32.5436C108.032 32.5436 109.433 33.2062 110.557 34.5328C111.675 35.8624 112.239 37.6086 112.239 39.7742ZM109.017 39.8898C109.017 38.5053 108.704 37.364 108.078 36.4642C107.395 35.5289 106.48 35.0605 105.329 35.0605C104.549 35.0605 103.841 35.3214 103.205 35.8358C102.57 36.3546 102.156 37.032 101.962 37.8709C101.866 38.2623 101.814 38.5809 101.814 38.8329V41.2061C101.814 42.2392 102.133 43.1123 102.764 43.8267C103.399 44.5368 104.223 44.8955 105.24 44.8955C106.432 44.8955 107.359 44.4345 108.02 43.5199C108.685 42.6024 109.017 41.3928 109.017 39.8898ZM130.535 41.5277C130.535 43.2072 129.948 44.5723 128.781 45.6262C127.497 46.7765 125.704 47.3531 123.406 47.3531C121.283 47.3531 119.581 46.944 118.297 46.1243L119.028 43.4903C120.414 44.3115 121.937 44.7206 123.594 44.7206C124.786 44.7206 125.713 44.4508 126.374 43.9157C127.037 43.3791 127.372 42.6617 127.372 41.7664C127.372 40.9645 127.095 40.293 126.551 39.746C126.004 39.2005 125.099 38.6921 123.829 38.2252C120.374 36.9371 118.645 35.0531 118.645 32.5747C118.645 30.9561 119.256 29.6309 120.475 28.5948C121.694 27.5602 123.31 27.0428 125.32 27.0428C127.116 27.0428 128.612 27.3556 129.799 27.9797L129.006 30.5559C127.888 29.9511 126.626 29.6487 125.215 29.6487C124.1 29.6487 123.225 29.9229 122.6 30.4684C122.073 30.9561 121.806 31.5505 121.806 32.256C121.806 33.0342 122.11 33.6805 122.715 34.1875C123.24 34.6544 124.198 35.1628 125.583 35.7083C127.282 36.3931 128.53 37.1906 129.329 38.1066C130.134 39.0227 130.535 40.1655 130.535 41.5277ZM141.013 35.2087H137.529V42.1147C137.529 43.8712 138.142 44.7472 139.373 44.7472C139.938 44.7472 140.406 44.6998 140.777 44.6005L140.865 47.0003C140.242 47.233 139.422 47.3501 138.406 47.3501C137.158 47.3501 136.182 46.9692 135.478 46.2073C134.777 45.4454 134.424 44.1692 134.424 42.3726V35.2028H132.348V32.8312H134.424V30.2268L137.529 29.29V32.8312H141.013V35.2087ZM156.703 39.832C156.703 42.0184 156.077 43.8134 154.828 45.2171C153.522 46.6624 151.785 47.3827 149.618 47.3827C147.528 47.3827 145.866 46.6905 144.626 45.3075C143.387 43.9216 142.767 42.1755 142.767 40.0692C142.767 37.865 143.407 36.0596 144.684 34.6559C145.964 33.2507 147.686 32.548 149.853 32.548C151.94 32.548 153.617 33.2418 154.886 34.6262C156.099 35.9692 156.703 37.7034 156.703 39.832ZM153.426 39.9046C153.426 38.6017 153.144 37.4841 152.579 36.5487C151.916 35.4192 150.968 34.8545 149.738 34.8545C148.472 34.8545 147.501 35.4192 146.84 36.5487C146.273 37.4841 145.992 38.621 145.992 39.9639C145.992 41.2683 146.273 42.3889 146.84 43.3213C147.523 44.4508 148.477 45.0155 149.712 45.0155C150.92 45.0155 151.868 44.4389 152.553 43.2931C153.134 42.3356 153.426 41.2105 153.426 39.9046ZM166.982 35.6164C166.653 35.557 166.32 35.5278 165.986 35.5289C164.874 35.5289 164.014 35.9469 163.409 36.7889C162.884 37.53 162.62 38.4668 162.62 39.5978V47.0611H159.459V37.3166C159.462 35.8234 159.431 34.3304 159.367 32.8386H162.12L162.236 35.5601H162.323C162.658 34.6247 163.183 33.8702 163.904 33.3055C164.563 32.812 165.365 32.5448 166.189 32.5436C166.481 32.5436 166.745 32.5644 166.979 32.6014L166.982 35.6164ZM181.119 39.2761C181.127 39.7565 181.089 40.2366 181.004 40.7095H171.52C171.556 42.1147 172.016 43.1908 172.896 43.932C173.696 44.5931 174.729 44.9251 175.998 44.9251C177.402 44.9251 178.683 44.7028 179.835 44.2536L180.331 46.4459C178.984 47.0329 177.395 47.3249 175.561 47.3249C173.355 47.3249 171.623 46.6757 170.362 45.3802C169.105 44.0832 168.475 42.34 168.475 40.1566C168.475 38.0132 169.061 36.2271 170.233 34.8026C171.461 33.2818 173.12 32.5214 175.208 32.5214C177.258 32.5214 178.811 33.2818 179.865 34.8026C180.7 36.0077 181.119 37.5018 181.119 39.2761ZM178.105 38.4564C178.127 37.5181 177.92 36.7103 177.491 36.027C176.944 35.1465 176.102 34.7077 174.974 34.7077C173.94 34.7077 173.098 35.1361 172.457 35.9958C171.931 36.6792 171.618 37.5004 171.522 38.4535L178.105 38.4564Z" fill="white"/>
<path d="M67.0332 20.3607C66.154 20.3607 65.3934 20.3178 64.7603 20.2451V10.7081C65.6457 10.5714 66.5405 10.504 67.4365 10.5065C71.0616 10.5065 72.7311 12.2897 72.7311 15.1965C72.7311 18.5494 70.7592 20.3607 67.0332 20.3607ZM67.564 11.7294C67.0747 11.7294 66.6581 11.7591 66.3126 11.8302V19.0801C66.4994 19.1097 66.8582 19.123 67.3623 19.123C69.7376 19.123 71.0898 17.7712 71.0898 15.2395C71.0898 12.9819 69.8666 11.7294 67.564 11.7294ZM77.9338 20.4334C75.8907 20.4334 74.5667 18.9081 74.5667 16.8374C74.5667 14.6792 75.9189 13.1405 78.0495 13.1405C80.063 13.1405 81.4166 14.5932 81.4166 16.7232C81.4166 18.9081 80.0214 20.4334 77.9338 20.4334ZM77.9931 14.276C76.8708 14.276 76.1517 15.3254 76.1517 16.7929C76.1517 18.2322 76.8856 19.2816 77.9783 19.2816C79.071 19.2816 79.805 18.1596 79.805 16.7632C79.805 15.3403 79.0859 14.276 77.9931 14.276ZM93.0675 13.2843L90.8806 20.2748H89.4557L88.5498 17.2391C88.3245 16.4965 88.137 15.743 87.9879 14.9815H87.9582C87.844 15.7434 87.6276 16.5068 87.3978 17.2391L86.434 20.2748H84.9943L82.9364 13.2843H84.5332L85.325 16.6076C85.5118 17.3991 85.669 18.1462 85.7994 18.8518H85.8291C85.9433 18.2633 86.1301 17.5281 86.4044 16.6224L87.3978 13.2858H88.664L89.6144 16.5513C89.8442 17.3428 90.031 18.1195 90.1763 18.8533H90.2178C90.3186 18.1344 90.4773 17.371 90.6923 16.5513L91.5418 13.2858L93.0675 13.2843ZM101.118 20.2748H99.5646V16.2608C99.5646 15.0245 99.0901 14.4049 98.1546 14.4049C97.2338 14.4049 96.6007 15.1965 96.6007 16.117V20.2748H95.0469V15.2824C95.0469 14.6643 95.0321 14.0017 94.9891 13.2828H96.3561L96.4287 14.3619H96.4717C96.8899 13.6149 97.7379 13.1405 98.6883 13.1405C100.156 13.1405 101.12 14.2626 101.12 16.0888L101.118 20.2748ZM105.403 20.2748H103.848V10.0767H105.403V20.2748ZM111.069 20.4334C109.027 20.4334 107.702 18.9081 107.702 16.8374C107.702 14.6792 109.054 13.1405 111.183 13.1405C113.198 13.1405 114.55 14.5932 114.55 16.7232C114.552 18.9081 113.155 20.4334 111.069 20.4334ZM111.127 14.276C110.004 14.276 109.285 15.3254 109.285 16.7929C109.285 18.2322 110.02 19.2816 111.11 19.2816C112.204 19.2816 112.937 18.1596 112.937 16.7632C112.938 15.3403 112.221 14.276 111.127 14.276ZM120.676 20.2748L120.564 19.4699H120.522C120.048 20.1177 119.355 20.4334 118.478 20.4334C117.225 20.4334 116.335 19.5559 116.335 18.376C116.335 16.6506 117.831 15.7583 120.421 15.7583V15.6293C120.421 14.7088 119.934 14.2478 118.97 14.2478C118.28 14.2478 117.676 14.4212 117.143 14.7666L116.827 13.7453C117.474 13.3421 118.28 13.1405 119.228 13.1405C121.055 13.1405 121.977 14.104 121.977 16.0325V18.6072C121.977 19.3128 122.008 19.8597 122.078 20.2763L120.676 20.2748ZM120.463 16.7929C118.737 16.7929 117.871 17.2109 117.871 18.2025C117.871 18.9363 118.318 19.295 118.937 19.295C119.728 19.295 120.463 18.6917 120.463 17.872V16.7929ZM129.522 20.2748L129.449 19.1527H129.406C128.96 20.0006 128.21 20.4334 127.162 20.4334C125.476 20.4334 124.227 18.9511 124.227 16.8655C124.227 14.6792 125.522 13.1391 127.289 13.1391C128.225 13.1391 128.888 13.4548 129.261 14.0892H129.292V10.0767H130.848V18.3908C130.848 19.0667 130.864 19.6997 130.905 20.2748H129.522ZM129.292 16.1614C129.292 15.1831 128.644 14.3486 127.655 14.3486C126.503 14.3486 125.799 15.3699 125.799 16.8077C125.799 18.2174 126.53 19.1823 127.624 19.1823C128.601 19.1823 129.292 18.333 129.292 17.3265V16.1614ZM140.709 20.4334C138.667 20.4334 137.343 18.9081 137.343 16.8374C137.343 14.6792 138.695 13.1405 140.825 13.1405C142.839 13.1405 144.192 14.5932 144.192 16.7232C144.193 18.9081 142.798 20.4334 140.709 20.4334ZM140.767 14.276C139.646 14.276 138.927 15.3254 138.927 16.7929C138.927 18.2322 139.661 19.2816 140.752 19.2816C141.846 19.2816 142.579 18.1596 142.579 16.7632C142.582 15.3403 141.862 14.276 140.767 14.276ZM152.548 20.2748H150.993V16.2608C150.993 15.0245 150.518 14.4049 149.583 14.4049C148.662 14.4049 148.03 15.1965 148.03 16.117V20.2748H146.475V15.2824C146.475 14.6643 146.46 14.0017 146.417 13.2828H147.784L147.857 14.3619H147.9C148.316 13.6149 149.166 13.1391 150.115 13.1391C151.583 13.1391 152.548 14.2611 152.548 16.0873V20.2748ZM163.002 14.4494H161.293V17.8438C161.293 18.708 161.592 19.1393 162.197 19.1393C162.472 19.1393 162.701 19.1097 162.887 19.0667L162.93 20.2466C162.629 20.3622 162.225 20.42 161.724 20.42C160.5 20.42 159.767 19.7441 159.767 17.9743V14.4494H158.747V13.2843H159.767V12.0036L161.293 11.5426V13.2828H163.002V14.4494ZM171.228 20.2748H169.676V16.2904C169.676 15.0393 169.203 14.4064 168.266 14.4064C167.461 14.4064 166.711 14.9534 166.711 16.0606V20.2748H165.158V10.0767H166.711V14.276H166.742C167.231 13.5141 167.94 13.1391 168.844 13.1391C170.324 13.1391 171.228 14.2893 171.228 16.117V20.2748ZM179.656 17.1531H174.993C175.022 18.4768 175.899 19.2238 177.196 19.2238C177.886 19.2238 178.52 19.1082 179.081 18.8933L179.322 19.9724C178.661 20.26 177.883 20.4037 176.977 20.4037C174.79 20.4037 173.495 19.0222 173.495 16.8803C173.495 14.737 174.821 13.1257 176.802 13.1257C178.588 13.1257 179.709 14.4494 179.709 16.449C179.719 16.685 179.701 16.9213 179.656 17.1531ZM178.231 16.0458C178.231 14.9667 177.687 14.2048 176.693 14.2048C175.801 14.2048 175.095 14.9815 174.994 16.0458H178.231Z" fill="white"/>
<defs>
<linearGradient id="paint0_linear_31_52" x1="146.724" y1="59.7957" x2="146.724" y2="-153.979" gradientUnits="userSpaceOnUse">
<stop stop-color="#1A1A1A" stop-opacity="0.1"/>
<stop offset="0.123" stop-color="#212121" stop-opacity="0.151"/>
<stop offset="0.308" stop-color="#353535" stop-opacity="0.227"/>
<stop offset="0.532" stop-color="#575757" stop-opacity="0.318"/>
<stop offset="0.783" stop-color="#858585" stop-opacity="0.421"/>
<stop offset="1" stop-color="#B3B3B3" stop-opacity="0.51"/>
</linearGradient>
</defs>
</svg>
