<svg width="45" height="59" viewBox="0 0 45 59" fill="none" xmlns="http://www.w3.org/2000/svg">
<path d="M17.4843 10.6451C19.9164 9.78068 21.1325 9.3485 21.8397 9.63799C22.4263 9.87808 22.8644 10.382 23.0205 10.9963C23.2087 11.737 22.6115 12.8811 21.4171 15.1692L18.0769 21.5679C17.3362 22.9868 16.9659 23.6962 16.4284 23.9874C15.9784 24.2312 15.452 24.2932 14.9577 24.1606C14.3673 24.0023 13.8423 23.3983 12.7922 22.1903L9.33114 18.2088C8.28108 17.0008 7.75604 16.3969 7.68142 15.7902C7.61894 15.2822 7.75359 14.7696 8.05765 14.3579C8.42077 13.8662 9.17485 13.5982 10.683 13.0622L17.4843 10.6451Z" fill="#4481F7"/>
<path d="M7.32861 27.4408C4.85586 28.3196 3.61949 28.759 2.90308 28.4558C2.3349 28.2152 1.90955 27.7259 1.75044 27.1298C1.5498 26.3781 2.157 25.2149 3.3714 22.8886L6.67444 16.561C7.42745 15.1185 7.80395 14.3973 8.3536 14.1064C8.7941 13.8733 9.30578 13.813 9.78839 13.9374C10.3906 14.0926 10.9244 14.7067 11.9919 15.9348L15.4145 19.872C16.4821 21.1001 17.0158 21.7141 17.0857 22.332C17.1418 22.8273 17.0109 23.3256 16.7187 23.7294C16.3542 24.2332 15.5875 24.5056 14.0542 25.0505L7.32861 27.4408Z" fill="#4481F7"/>
<path d="M24.5868 13.8151C23.765 11.3683 23.3541 10.1449 23.6559 9.44279C23.9062 8.86048 24.4177 8.43128 25.0346 8.28591C25.7785 8.11062 26.9119 8.72772 29.1789 9.96192L35.5183 13.4133C36.924 14.1786 37.6269 14.5613 37.9086 15.1037C38.1446 15.5579 38.1974 16.0853 38.0562 16.5772C37.8876 17.1647 37.2745 17.6792 36.0484 18.708L32.0071 22.0991C30.781 23.1279 30.1679 23.6423 29.5601 23.7063C29.0511 23.7599 28.5409 23.6163 28.1345 23.3051C27.6493 22.9335 27.3945 22.1749 26.8849 20.6576L24.5868 13.8151Z" fill="#0E3977"/>
<path d="M41.2027 24.2624C42.0382 26.7502 42.4559 27.994 42.1402 28.705C41.8898 29.2689 41.3931 29.6857 40.7943 29.8343C40.0393 30.0218 38.8869 29.3944 36.582 28.1396L30.3131 24.7266C28.884 23.9486 28.1694 23.5595 27.8881 23.0049C27.6627 22.5604 27.6114 22.0477 27.7442 21.5674C27.9099 20.968 28.5332 20.445 29.7797 19.399L33.7761 16.0457C35.0226 14.9997 35.6459 14.4768 36.2649 14.4176C36.7611 14.3703 37.257 14.5098 37.6556 14.809C38.153 15.1823 38.412 15.9536 38.9301 17.4961L41.2027 24.2624Z" fill="#0E3B77"/>
<path d="M19.9699 44.8399C20.7916 47.2867 21.2025 48.5101 20.9008 49.2122C20.6505 49.7945 20.139 50.2237 19.522 50.3691C18.7782 50.5444 17.6447 49.9273 15.3777 48.6931L9.03833 45.2417C7.6326 44.4764 6.92973 44.0937 6.648 43.5513C6.41208 43.0971 6.35928 42.5697 6.50047 42.0778C6.66907 41.4903 7.28212 40.9758 8.50823 39.947L12.5495 36.5559C13.7757 35.5271 14.3887 35.0127 14.9966 34.9487C15.5056 34.8951 16.0158 35.0387 16.4221 35.3499C16.9074 35.7215 17.1622 36.4801 17.6718 37.9974L19.9699 44.8399Z" fill="#0E3B77"/>
<path d="M3.35398 34.3926C2.51846 31.9048 2.1007 30.661 2.41645 29.95C2.66686 29.3861 3.16352 28.9693 3.76232 28.8207C4.51736 28.6332 5.66978 29.2606 7.97461 30.5154L14.2435 33.9284C15.6727 34.7064 16.3872 35.0955 16.6685 35.6501C16.8939 36.0946 16.9452 36.6073 16.8124 37.0876C16.6467 37.687 16.0234 38.21 14.7769 39.256L10.7805 42.6093C9.53402 43.6553 8.91076 44.1782 8.2917 44.2374C7.79556 44.2847 7.29961 44.1452 6.901 43.846C6.40363 43.4727 6.14459 42.7014 5.62652 41.1589L3.35398 34.3926Z" fill="#0E3B77"/>
<path d="M27.7843 48.6643C25.5174 49.8984 24.3839 50.5155 23.64 50.3403C23.0231 50.1949 22.5116 49.7657 22.2613 49.1834C21.9595 48.4813 22.3704 47.2579 23.1922 44.811L25.4903 37.9686C25.9999 36.4513 26.2547 35.6927 26.7399 35.321C27.1463 35.0098 27.6565 34.8663 28.1655 34.9199C28.7734 34.9839 29.3864 35.4983 30.6125 36.5271L34.6538 39.9182C35.8799 40.947 36.493 41.4614 36.6616 42.0489C36.8028 42.5409 36.75 43.0683 36.5141 43.5225C36.2323 44.0649 35.5295 44.4476 34.1237 45.2129L27.7843 48.6643Z" fill="#4481F7"/>
<path d="M35.1876 30.4866C37.4924 29.2318 38.6448 28.6043 39.3998 28.7918C39.9986 28.9405 40.4953 29.3573 40.7457 29.9212C41.0615 30.6322 40.6437 31.876 39.8082 34.3637L37.5356 41.1301C37.0176 42.6726 36.7585 43.4439 36.2612 43.8172C35.8625 44.1164 35.3666 44.2559 34.8705 44.2085C34.2514 44.1494 33.6281 43.6264 32.3816 42.5805L28.3852 39.2271C27.1387 38.1812 26.5155 37.6582 26.3497 37.0588C26.2169 36.5784 26.2682 36.0658 26.4937 35.6213C26.7749 35.0666 27.4895 34.6776 28.9186 33.8995L35.1876 30.4866Z" fill="#4481F7"/>
</svg>
