<svg width="200" height="60" viewBox="0 0 200 60" fill="none" xmlns="http://www.w3.org/2000/svg">
<path d="M192.593 59.6296H7.40741C3.25926 59.6296 0 56.3704 0 52.2222V7.77777C0 3.62962 3.25926 0.370361 7.40741 0.370361H192.593C196.741 0.370361 200 3.62962 200 7.77777V52.2222C200 56.3704 196.741 59.6296 192.593 59.6296Z" fill="black"/>
<path d="M192.593 1.55555C196 1.55555 198.815 4.37036 198.815 7.77777V52.2222C198.815 55.6296 196 58.4444 192.593 58.4444H7.40741C4 58.4444 1.18519 55.6296 1.18519 52.2222V7.77777C1.18519 4.37036 4 1.55555 7.40741 1.55555H192.593ZM192.593 0.370361H7.40741C3.25926 0.370361 0 3.77777 0 7.77777V52.2222C0 56.3704 3.25926 59.6296 7.40741 59.6296H192.593C196.741 59.6296 200 56.3704 200 52.2222V7.77777C200 3.77777 196.741 0.370361 192.593 0.370361Z" fill="#A6A6A6"/>
<path d="M70.2221 15.4815C70.2221 16.6667 69.9258 17.7037 69.1851 18.4444C68.2962 19.3333 67.2592 19.7778 65.9258 19.7778C64.5925 19.7778 63.5555 19.3333 62.6666 18.4444C61.7777 17.5556 61.3333 16.5185 61.3333 15.1852C61.3333 13.8518 61.7777 12.8148 62.6666 11.9259C63.5555 11.037 64.5925 10.5926 65.9258 10.5926C66.5184 10.5926 67.111 10.7407 67.7036 11.037C68.2962 11.3333 68.7407 11.6296 69.037 12.0741L68.2962 12.8148C67.7036 12.0741 66.9629 11.7778 65.9258 11.7778C65.037 11.7778 64.1481 12.0741 63.5555 12.8148C62.8147 13.4074 62.5184 14.2963 62.5184 15.3333C62.5184 16.3704 62.8147 17.2593 63.5555 17.8518C64.2962 18.4444 65.037 18.8889 65.9258 18.8889C66.9629 18.8889 67.7036 18.5926 68.4444 17.8518C68.8888 17.4074 69.1851 16.8148 69.1851 16.0741H65.9258V14.8889H70.2221V15.4815ZM77.037 11.7778H73.037V14.5926H76.7407V15.6296H73.037V18.4444H77.037V19.6296H71.8518V10.7407H77.037V11.7778ZM81.9258 19.6296H80.7407V11.7778H78.2221V10.7407H84.4444V11.7778H81.9258V19.6296ZM88.7407 19.6296V10.7407H89.9258V19.6296H88.7407ZM94.9629 19.6296H93.7777V11.7778H91.2592V10.7407H97.3332V11.7778H94.8147V19.6296H94.9629ZM109.037 18.4444C108.148 19.3333 107.111 19.7778 105.778 19.7778C104.444 19.7778 103.407 19.3333 102.518 18.4444C101.63 17.5556 101.185 16.5185 101.185 15.1852C101.185 13.8518 101.63 12.8148 102.518 11.9259C103.407 11.037 104.444 10.5926 105.778 10.5926C107.111 10.5926 108.148 11.037 109.037 11.9259C109.926 12.8148 110.37 13.8518 110.37 15.1852C110.37 16.5185 109.926 17.5556 109.037 18.4444ZM103.407 17.7037C104 18.2963 104.889 18.7407 105.778 18.7407C106.667 18.7407 107.555 18.4444 108.148 17.7037C108.741 17.1111 109.185 16.2222 109.185 15.1852C109.185 14.1481 108.889 13.2593 108.148 12.6667C107.555 12.0741 106.667 11.6296 105.778 11.6296C104.889 11.6296 104 11.9259 103.407 12.6667C102.815 13.2593 102.37 14.1481 102.37 15.1852C102.37 16.2222 102.667 17.1111 103.407 17.7037ZM112 19.6296V10.7407H113.333L117.63 17.7037V10.7407H118.815V19.6296H117.63L113.037 12.3704V19.6296H112Z" fill="white" stroke="white" stroke-width="1.18519" stroke-miterlimit="10"/>
<path d="M100.889 32.6667C97.3334 32.6667 94.5185 35.3334 94.5185 39.0371C94.5185 42.5926 97.3334 45.4074 100.889 45.4074C104.444 45.4074 107.259 42.7408 107.259 39.0371C107.259 35.1852 104.444 32.6667 100.889 32.6667ZM100.889 42.7408C98.963 42.7408 97.3334 41.1111 97.3334 38.8889C97.3334 36.6667 98.963 35.0371 100.889 35.0371C102.815 35.0371 104.444 36.5185 104.444 38.8889C104.444 41.1111 102.815 42.7408 100.889 42.7408ZM87.1111 32.6667C83.5556 32.6667 80.7408 35.3334 80.7408 39.0371C80.7408 42.5926 83.5556 45.4074 87.1111 45.4074C90.6667 45.4074 93.4815 42.7408 93.4815 39.0371C93.4815 35.1852 90.6667 32.6667 87.1111 32.6667ZM87.1111 42.7408C85.1852 42.7408 83.5556 41.1111 83.5556 38.8889C83.5556 36.6667 85.1852 35.0371 87.1111 35.0371C89.0371 35.0371 90.6667 36.5185 90.6667 38.8889C90.6667 41.1111 89.0371 42.7408 87.1111 42.7408ZM70.6667 34.5926V37.2593H77.0371C76.8889 38.7408 76.2963 39.926 75.5556 40.6667C74.6667 41.5556 73.1852 42.5926 70.6667 42.5926C66.6667 42.5926 63.7037 39.4815 63.7037 35.4815C63.7037 31.4815 66.8148 28.3704 70.6667 28.3704C72.7408 28.3704 74.3704 29.2593 75.5556 30.2963L77.4815 28.3704C75.8519 26.8889 73.7778 25.7037 70.8148 25.7037C65.4815 25.7037 60.8889 30.1482 60.8889 35.4815C60.8889 40.8148 65.4815 45.2593 70.8148 45.2593C73.7778 45.2593 75.8519 44.3704 77.6297 42.4445C79.4074 40.6667 80 38.1482 80 36.2223C80 35.6297 80 35.0371 79.8519 34.5926H70.6667ZM137.926 36.6667C137.333 35.1852 135.852 32.6667 132.593 32.6667C129.333 32.6667 126.667 35.1852 126.667 39.0371C126.667 42.5926 129.333 45.4074 132.889 45.4074C135.704 45.4074 137.482 43.6297 138.074 42.5926L136 41.1111C135.259 42.1482 134.37 42.8889 132.889 42.8889C131.407 42.8889 130.519 42.2963 129.778 40.963L138.222 37.4074L137.926 36.6667ZM129.333 38.7408C129.333 36.3704 131.259 35.0371 132.593 35.0371C133.63 35.0371 134.667 35.6297 134.963 36.3704L129.333 38.7408ZM122.37 44.8148H125.185V26.2963H122.37V44.8148ZM117.926 34C117.185 33.2593 116 32.5186 114.519 32.5186C111.407 32.5186 108.444 35.3334 108.444 38.8889C108.444 42.4445 111.259 45.1111 114.519 45.1111C116 45.1111 117.185 44.3704 117.778 43.6297H117.926V44.5185C117.926 46.8889 116.593 48.2223 114.519 48.2223C112.889 48.2223 111.704 47.0371 111.407 46L109.037 47.0371C109.778 48.6667 111.556 50.7408 114.667 50.7408C117.926 50.7408 120.593 48.8148 120.593 44.2223V32.963H117.926V34ZM114.667 42.7408C112.741 42.7408 111.111 41.1111 111.111 38.8889C111.111 36.6667 112.741 35.0371 114.667 35.0371C116.593 35.0371 118.074 36.6667 118.074 38.8889C118.074 41.1111 116.593 42.7408 114.667 42.7408ZM150.815 26.2963H144.148V44.8148H146.963V37.8519H150.815C153.926 37.8519 156.889 35.6297 156.889 32.0741C156.889 28.5185 153.926 26.2963 150.815 26.2963ZM150.963 35.1852H146.963V28.8148H150.963C153.037 28.8148 154.222 30.5926 154.222 31.926C154.074 33.5556 152.889 35.1852 150.963 35.1852ZM168 32.5186C165.926 32.5186 163.852 33.4074 163.111 35.3334L165.63 36.3704C166.222 35.3334 167.111 35.0371 168.148 35.0371C169.63 35.0371 170.963 35.926 171.111 37.4074V37.5556C170.667 37.2593 169.482 36.8148 168.296 36.8148C165.63 36.8148 162.963 38.2963 162.963 40.963C162.963 43.4815 165.185 45.1111 167.556 45.1111C169.482 45.1111 170.37 44.2223 171.111 43.3334H171.259V44.8148H173.926V37.7037C173.63 34.4445 171.111 32.5186 168 32.5186ZM167.704 42.7408C166.815 42.7408 165.482 42.2963 165.482 41.1111C165.482 39.6297 167.111 39.1852 168.444 39.1852C169.63 39.1852 170.222 39.4815 170.963 39.7778C170.667 41.5556 169.185 42.7408 167.704 42.7408ZM183.259 32.963L180.148 40.963H180L176.741 32.963H173.778L178.667 44.2223L175.852 50.4445H178.667L186.222 32.963H183.259ZM158.37 44.8148H161.185V26.2963H158.37V44.8148Z" fill="white"/>
<path d="M15.4073 11.4815C14.9628 11.926 14.8147 12.6667 14.8147 13.5556V46.2963C14.8147 47.1852 15.111 47.926 15.5554 48.3704L15.7036 48.5185L34.074 30.1482V29.8519L15.4073 11.4815Z" fill="url(#paint0_linear_31_51)"/>
<path d="M39.9999 36.3704L33.9258 30.2963V29.8518L39.9999 23.7778L40.148 23.9259L47.4073 28.0741C49.4813 29.2593 49.4813 31.1852 47.4073 32.3704L39.9999 36.3704Z" fill="url(#paint1_linear_31_51)"/>
<path d="M40.148 36.2222L33.9257 30L15.4072 48.5185C16.148 49.2593 17.185 49.2593 18.5183 48.6667L40.148 36.2222Z" fill="url(#paint2_linear_31_51)"/>
<path d="M40.148 23.7778L18.5183 11.4815C17.185 10.7408 16.148 10.8889 15.4072 11.6297L33.9257 30L40.148 23.7778Z" fill="url(#paint3_linear_31_51)"/>
<path opacity="0.2" d="M39.9998 36.0741L18.5183 48.2222C17.3332 48.963 16.2961 48.8148 15.5554 48.2222L15.4072 48.3704L15.5554 48.5185C16.2961 49.1111 17.3332 49.2593 18.5183 48.5185L39.9998 36.0741Z" fill="black"/>
<path opacity="0.12" d="M15.4073 48.2222C14.9628 47.7778 14.8147 47.037 14.8147 46.1481V46.2963C14.8147 47.1852 15.111 47.9259 15.5554 48.3704V48.2222H15.4073ZM47.4073 31.9259L39.9999 36.0741L40.148 36.2222L47.4073 32.0741C48.4443 31.4815 48.8888 30.7407 48.8888 30C48.8888 30.7407 48.2962 31.3333 47.4073 31.9259Z" fill="black"/>
<path opacity="0.25" d="M18.5184 11.6296L47.4073 28.0741C48.2962 28.6667 48.8888 29.2593 48.8888 30C48.8888 29.2593 48.4443 28.5185 47.4073 27.9259L18.5184 11.4815C16.4443 10.2963 14.8147 11.1852 14.8147 13.5556V13.7037C14.8147 11.4815 16.4443 10.4444 18.5184 11.6296Z" fill="white"/>
<defs>
<linearGradient id="paint0_linear_31_51" x1="32.2962" y1="13.2741" x2="7.43247" y2="38.1363" gradientUnits="userSpaceOnUse">
<stop stop-color="#00A0FF"/>
<stop offset="0.007" stop-color="#00A1FF"/>
<stop offset="0.26" stop-color="#00BEFF"/>
<stop offset="0.512" stop-color="#00D2FF"/>
<stop offset="0.76" stop-color="#00DFFF"/>
<stop offset="1" stop-color="#00E3FF"/>
</linearGradient>
<linearGradient id="paint1_linear_31_51" x1="50.1243" y1="30.0015" x2="14.2769" y2="30.0015" gradientUnits="userSpaceOnUse">
<stop stop-color="#FFE000"/>
<stop offset="0.409" stop-color="#FFBD00"/>
<stop offset="0.775" stop-color="#FFA500"/>
<stop offset="1" stop-color="#FF9C00"/>
</linearGradient>
<linearGradient id="paint2_linear_31_51" x1="36.7806" y1="33.4015" x2="3.06501" y2="67.117" gradientUnits="userSpaceOnUse">
<stop stop-color="#FF3A44"/>
<stop offset="1" stop-color="#C31162"/>
</linearGradient>
<linearGradient id="paint3_linear_31_51" x1="10.8102" y1="0.631137" x2="25.8665" y2="15.6874" gradientUnits="userSpaceOnUse">
<stop stop-color="#32A071"/>
<stop offset="0.069" stop-color="#2DA771"/>
<stop offset="0.476" stop-color="#15CF74"/>
<stop offset="0.801" stop-color="#06E775"/>
<stop offset="1" stop-color="#00F076"/>
</linearGradient>
</defs>
</svg>
